<svg width="300" height="300" xmlns="http://www.w3.org/2000/svg" version="1.1"><circle cx="150" cy="150" r="140" fill="#ffffff" stroke="#333333" stroke-width="8" /><g stroke="#333333" stroke-width="3">
	<line x1="150" y1="30" x2="150" y2="50"/>
		<line x1="150" y1="250" x2="150" y2="270"/>
		<line x1="30" y1="150" x2="50" y2="150"/>
		<line x1="250" y1="150" x2="270" y2="150"/>
		<line x1="200" y1="49" x2="205" y2="61"/>
		<line x1="250" y1="100" x2="261" y2="105"/>
		<line x1="251" y1="200" x2="261" y2="195"/>
		<line x1="200" y1="251" x2="205" y2="239"/>
		<line x1="100" y1="251" x2="95" y2="239"/>
		<line x1="49" y1="200" x2="39" y2="195"/>
		<line x1="49" y1="100" x2="39" y2="105"/>
		<line x1="100" y1="49" x2="95" y2="61"/>
	</g>
	<line x1="150" y1="150" x2="37.416698" y2="215.000000"  stroke="#ff5555" stroke-width="2" stroke-linecap="round" />
	<line x1="150" y1="150" x2="166.700772" y2="268.832168" stroke="#555555" stroke-width="5" stroke-linecap="round" />
	<line x1="150" y1="150" x2="85.259418" y2="87.480747" stroke="#333333" stroke-width="8" stroke-linecap="round" />
	<circle cx="150" cy="150" r="5" fill="#333333"/>
</svg>